<svg width="582" height="404" viewBox="0 0 582 404" fill="none" xmlns="http://www.w3.org/2000/svg">
<path fill-rule="evenodd" clip-rule="evenodd" d="M232.259 220.927L363.496 220.927L377.84 294.671H308.856L299.986 274.596L290.871 294.671H225.108L232.259 220.927Z" fill="#20244B"/>
<path fill-rule="evenodd" clip-rule="evenodd" d="M329.536 220.927H363.499L377.84 294.671L335.878 288.228C340.619 273.487 341.062 263.344 337.206 257.799C331.422 249.482 329.536 249.482 325.634 244.007C323.032 240.357 324.333 232.664 329.536 220.927Z" fill="#534D96"/>
<mask id="mask0" mask-type="alpha" maskUnits="userSpaceOnUse" x="215" y="42" width="199" height="94">
<path d="M263.888 44.8897C279.535 43.0074 295.252 42.0818 311.039 42.1129C331.895 42.1548 352.74 43.8661 373.574 47.247C391.845 50.2119 407.125 62.7419 413.611 80.0781C409.331 89.7461 402.884 95.1874 394.272 96.402C385.66 97.6165 377.357 100.753 369.364 105.81L346.587 133.254L253.978 135.644C233.232 136.179 215.979 119.794 215.444 99.0477C215.407 97.6363 215.451 96.224 215.573 94.8175C217.836 68.8395 237.998 48.0042 263.888 44.8897Z" fill="white"/>
</mask>
<g mask="url(#mask0)">
<path d="M263.888 44.8897C279.535 43.0074 295.252 42.0818 311.039 42.1129C331.895 42.1548 352.74 43.8661 373.574 47.247C391.845 50.2119 407.125 62.7419 413.611 80.0781C409.331 89.7461 402.884 95.1874 394.272 96.402C385.66 97.6165 377.357 100.753 369.364 105.81L346.587 133.254L253.978 135.644C233.232 136.179 215.979 119.794 215.444 99.0477C215.407 97.6363 215.451 96.224 215.573 94.8175C217.836 68.8395 237.998 48.0042 263.888 44.8897Z" fill="#534D96"/>
<path fill-rule="evenodd" clip-rule="evenodd" d="M264.448 44.2254C285.486 42.7299 300.963 42.0285 310.879 42.121C323.508 42.2389 338.913 44.2611 357.095 48.1876V48.1876C368.029 50.5487 378.197 55.6095 386.673 62.9084C397.214 71.9859 401.74 79.5535 400.252 85.6114C399.454 88.8582 399.454 96.5076 400.252 108.559L249.436 127.759C231.785 130.006 215.655 117.519 213.408 99.8684C213.011 96.7523 213.072 93.5948 213.589 90.4964C217.815 65.1745 238.841 46.0458 264.448 44.2254Z" fill="#20244B"/>
</g>
<mask id="mask1" mask-type="alpha" maskUnits="userSpaceOnUse" x="227" y="98" width="157" height="125">
<path d="M227.506 100.354L383.52 98.2371C383.267 106.127 381.84 114.597 379.24 123.645C374.647 139.624 361.524 169.545 361.524 187.496C361.524 199.401 362.143 211.197 363.382 222.885H231.942L227.506 100.354Z" fill="white"/>
</mask>
<g mask="url(#mask1)">
<path d="M227.506 100.354L383.52 98.2371C383.267 106.127 381.84 114.597 379.24 123.645C374.647 139.624 361.524 169.545 361.524 187.496C361.524 199.401 362.143 211.197 363.382 222.885H231.942L227.506 100.354Z" fill="#20244B"/>
<path fill-rule="evenodd" clip-rule="evenodd" d="M381.89 100.195C384.499 112.268 384.499 122.835 381.89 131.895C377.283 147.894 361.78 169.476 361.78 187.45C361.78 199.37 362.401 211.182 363.644 222.885H329.016C335.406 209.157 336.258 199.519 331.573 193.97C320.361 180.689 306.346 191.929 296.406 187.45C281.702 180.824 316.542 160.857 344.563 139.495C363.244 125.253 375.686 112.153 381.89 100.195Z" fill="#534D96"/>
</g>
<path fill-rule="evenodd" clip-rule="evenodd" d="M353.884 309.616H484.734L546.961 390.492L361.157 394.627L353.884 309.616Z" fill="#333333"/>
<path fill-rule="evenodd" clip-rule="evenodd" d="M353.884 309.616H484.734L546.961 390.492H364.084L353.884 309.616Z" fill="#7B6FC0"/>
<path fill-rule="evenodd" clip-rule="evenodd" d="M131.048 300.304L244.115 299.844L184.475 400.144L35 402.444L131.048 300.304Z" fill="#333333"/>
<path fill-rule="evenodd" clip-rule="evenodd" d="M131.048 300.304H244.115L184.475 400.144H41.4202L131.048 300.304Z" fill="#7B6FC0"/>
<path fill-rule="evenodd" clip-rule="evenodd" d="M168.12 291.702H457.88L498.271 346.332L117.408 350.004L168.12 291.702Z" fill="#333333"/>
<path fill-rule="evenodd" clip-rule="evenodd" d="M168.12 291.702H458.057L498.506 346.332H123.377L168.12 291.702Z" fill="#DBDBDB"/>
<path fill-rule="evenodd" clip-rule="evenodd" d="M126.154 305.596L386.642 303.753L439.224 328.017L385.167 329.433C364.799 329.705 352.394 328.896 347.952 327.006C343.51 325.117 342.645 322.943 345.357 320.486L112.302 320.851L126.154 305.596Z" fill="#333333"/>
<mask id="mask2" mask-type="alpha" maskUnits="userSpaceOnUse" x="388" y="267" width="28" height="27">
<path d="M388.526 274.871L415.562 267.113L413.19 293.218H388.526V274.871Z" fill="white"/>
</mask>
<g mask="url(#mask2)">
<path d="M388.526 274.871L415.562 267.113L413.19 293.218H388.526V274.871Z" fill="#C3BCE8"/>
<path fill-rule="evenodd" clip-rule="evenodd" d="M388.526 274.93L404.897 270.126C402.357 281.457 401.467 289.306 402.229 293.672C402.99 298.038 398.422 298.038 388.526 293.672V274.93Z" fill="#7B6FC0"/>
</g>
<path fill-rule="evenodd" clip-rule="evenodd" d="M412.022 318.883L425.072 318.211L432.942 326.491C429.09 328.306 426.099 328.306 423.969 326.491C421.839 324.676 417.857 322.14 412.022 318.883Z" fill="#7B6FC0"/>
<mask id="mask3" mask-type="alpha" maskUnits="userSpaceOnUse" x="376" y="298" width="67" height="30">
<path d="M413.581 298.286L414.369 304.205L420.13 314.051C424.44 314.956 428.544 315.988 430.574 316.851C440.012 320.865 442.519 322.361 442.519 325.23C442.519 325.864 440.737 329.08 437.261 327.416C433.785 325.751 430.717 324.159 425.63 323.419C422.361 322.943 413.095 320.699 407.666 320.317C403.477 320.023 386.74 319.341 381.243 318.89C378.193 318.64 374.348 311.106 378.304 309.444C378.508 309.358 378.722 309.281 378.948 309.213C378.248 307.851 378.158 306.916 378.681 306.409C379.434 305.677 381.902 305.403 386.085 305.585L388.554 298.286H413.581Z" fill="white"/>
</mask>
<g mask="url(#mask3)">
<path d="M413.581 298.286L414.369 304.205L420.13 314.051C424.44 314.956 428.544 315.988 430.574 316.851C440.012 320.865 442.519 322.361 442.519 325.23C442.519 325.864 440.737 329.08 437.261 327.416C433.785 325.751 430.717 324.159 425.63 323.419C422.361 322.943 413.095 320.699 407.666 320.317C403.477 320.023 386.74 319.341 381.243 318.89C378.193 318.64 374.348 311.106 378.304 309.444C378.508 309.358 378.722 309.281 378.948 309.213C378.248 307.851 378.158 306.916 378.681 306.409C379.434 305.677 381.902 305.403 386.085 305.585L388.554 298.286H413.581Z" fill="#7B6FC0"/>
<path fill-rule="evenodd" clip-rule="evenodd" d="M401.029 297.707H413.581L414.369 303.735L444.99 324.227C443.099 326.071 441.773 326.84 441.012 326.533C434.951 324.085 431.735 319.555 427.232 318.102C413.543 313.683 407.684 313.158 405.529 311.319C402.662 308.872 401.162 304.335 401.029 297.707Z" fill="#C3BCE8"/>
</g>
<path fill-rule="evenodd" clip-rule="evenodd" d="M388.526 290.654H413.553L412.825 298.393H388.526V290.654Z" fill="#333333"/>
<path d="M402.22 300.214C405.245 300.214 407.697 297.768 407.697 294.751C407.697 291.734 405.245 289.288 402.22 289.288C399.195 289.288 396.742 291.734 396.742 294.751C396.742 297.768 399.195 300.214 402.22 300.214Z" fill="#DBDBDB" stroke="#534D96"/>
<mask id="mask4" mask-type="alpha" maskUnits="userSpaceOnUse" x="373" y="305" width="11" height="24">
<path d="M381.312 328.015C382.737 328.015 383.089 326.627 383.508 325.117C383.788 324.11 383.788 322.796 383.508 321.174C381.511 317.301 380.628 315.128 380.859 314.653C381.738 312.842 384.08 311.943 383.921 310.956C383.277 306.954 383.884 305.999 381.354 305.999C379.97 305.999 376.194 307.591 375.166 309.008C374.207 310.33 373.077 311.412 373.077 313.858C373.077 315.231 373.692 320.737 374.085 321.876C375.78 326.798 377.912 328.015 381.312 328.015Z" fill="white"/>
</mask>
<g mask="url(#mask4)">
<path d="M381.312 328.015C382.737 328.015 383.089 326.627 383.508 325.117C383.788 324.11 383.788 322.796 383.508 321.174C381.511 317.301 380.628 315.128 380.859 314.653C381.738 312.842 384.08 311.943 383.921 310.956C383.277 306.954 383.884 305.999 381.354 305.999C379.97 305.999 376.194 307.591 375.166 309.008C374.207 310.33 373.077 311.412 373.077 313.858C373.077 315.231 373.692 320.737 374.085 321.876C375.78 326.798 377.912 328.015 381.312 328.015Z" fill="#7B6FC0"/>
<path fill-rule="evenodd" clip-rule="evenodd" d="M381.312 328.921C382.737 328.921 383.089 327.52 383.508 325.997C383.788 324.981 383.788 323.655 383.508 322.019C381.511 318.112 380.628 315.919 380.859 315.44C381.445 314.222 382.466 312.979 383.921 311.71C381.859 312.153 380.297 313.077 379.236 314.483C378.556 315.383 378.723 316.771 379.236 317.603C380.725 320.017 380.787 321.511 381.007 323.526C381.338 326.571 380.383 328.921 381.312 328.921Z" fill="#C3BCE8"/>
</g>
<path fill-rule="evenodd" clip-rule="evenodd" d="M363.569 81.974C375.609 82.8588 385.694 82.8588 393.823 81.974C401.952 81.0892 408.413 80.528 413.206 80.2904C420.454 140.515 424.077 175.807 424.077 186.165C424.077 190.163 420.999 219.697 414.842 274.767H388.454L385.804 198.77L363.569 81.974Z" fill="#534D96"/>
<path fill-rule="evenodd" clip-rule="evenodd" d="M354.083 52.7234C358.894 51.4055 362.28 50.8112 364.243 50.9405C372.557 51.4879 378.532 54.9736 383.595 57.3612C393.881 62.211 407.081 80.1408 407.081 95.7099C407.081 111.279 396.781 130.228 400.595 144.795C407.886 172.643 413.285 164.213 416.681 181.928C419.14 194.751 398.118 194.936 400.595 215.029C400.87 217.259 406.42 238.696 407.081 251.353C407.413 257.7 406.326 265.504 403.82 274.767H388.466L385.793 198.712L354.083 52.7234Z" fill="#20244B"/>
<mask id="mask5" mask-type="alpha" maskUnits="userSpaceOnUse" x="228" y="272" width="53" height="36">
<path d="M253.791 307.259C266.149 307.259 266.74 289.497 265.835 287.618C265.261 286.427 281.675 289.195 280.325 285.976C279.607 284.266 280.693 278.585 278.221 277.103C274.902 275.115 269.782 272.253 264.644 272.253C261.234 272.253 247.717 277.858 244.673 278.622C233.289 281.478 225.657 286.654 228.997 295.518C231.131 301.181 231.131 299.88 235.355 303.04C238.38 305.303 246.399 307.259 253.791 307.259Z" fill="white"/>
</mask>
<g mask="url(#mask5)">
<path d="M253.791 307.259C266.149 307.259 266.74 289.497 265.835 287.618C265.261 286.427 281.675 289.195 280.325 285.976C279.607 284.266 280.693 278.585 278.221 277.103C274.902 275.115 269.782 272.253 264.644 272.253C261.234 272.253 247.717 277.858 244.673 278.622C233.289 281.478 225.657 286.654 228.997 295.518C231.131 301.181 231.131 299.88 235.355 303.04C238.38 305.303 246.399 307.259 253.791 307.259Z" fill="#7B6FC0"/>
<path fill-rule="evenodd" clip-rule="evenodd" d="M277.272 278.622C277.827 279.247 278.055 282.754 279.018 282.866C280.995 283.095 280.978 278.545 279.87 277.881C276.551 275.892 269.782 272.253 264.644 272.253C263.409 272.253 262.748 272.726 262.661 273.67C266.227 274.008 268.484 274.307 269.432 274.566C270.456 274.846 276.718 277.996 277.272 278.622Z" fill="#C3BCE8"/>
</g>
<path fill-rule="evenodd" clip-rule="evenodd" d="M297.815 306.224L299.406 307.871C301.548 311.49 302.443 313.469 302.091 313.81C301.738 314.151 299.791 313.187 296.249 310.92L294.658 309.273L297.815 306.224Z" fill="#DBDBDB"/>
<path d="M299.048 307.5L249.752 256.454L246.596 259.502L295.891 310.549L299.048 307.5Z" fill="#333333"/>
<path d="M298.101 308.415L248.805 257.368L246.596 259.502L295.891 310.549L298.101 308.415Z" fill="#333333"/>
<path d="M302.406 313.505L301.482 312.548L300.535 313.463L301.459 314.42L302.406 313.505Z" fill="#333333"/>
<mask id="mask6" mask-type="alpha" maskUnits="userSpaceOnUse" x="253" y="303" width="25" height="8">
<path d="M254.104 305.032C262.741 303.338 268.161 303.081 270.367 304.26C271.594 304.917 276.378 304.324 277.444 305.438C278.511 306.551 276.564 307.871 274.308 308.848C272.804 309.5 269.807 309.834 265.319 309.851L253.761 310.42L254.104 305.032Z" fill="white"/>
</mask>
<g mask="url(#mask6)">
<path d="M255.472 301.165C264.167 302.527 269.349 304.14 271.018 306.002C271.946 307.039 276.645 308.118 277.266 309.529C277.887 310.94 275.607 311.515 273.152 311.661C271.516 311.759 268.586 311.049 264.362 309.529L253.307 306.111L255.472 301.165Z" fill="#7B6FC0"/>
<path fill-rule="evenodd" clip-rule="evenodd" d="M255.472 301.165C264.167 302.527 269.349 304.14 271.018 306.002C271.947 307.039 277.056 308.152 277.677 309.564C278.298 310.975 276.643 312.859 274.188 313.005C273.06 313.073 274.495 311.731 270.206 309.564C268.92 308.914 265.823 307.589 260.916 305.588L255.472 301.165Z" fill="#C3BCE8"/>
</g>
<mask id="mask7" mask-type="alpha" maskUnits="userSpaceOnUse" x="259" y="297" width="26" height="13">
<path d="M261.419 297.939C270.171 298.865 275.427 300.216 277.187 301.992C278.167 302.981 282.913 303.824 283.604 305.202C284.295 306.581 284.595 308.808 282.151 309.078C280.522 309.258 277.611 308.82 273.419 307.766L259.504 302.987L261.419 297.939Z" fill="#DBDBDB"/>
</mask>
<g mask="url(#mask7)">
<path d="M261.715 297.401C270.41 298.764 275.592 300.376 277.261 302.239C278.19 303.275 282.888 304.354 283.509 305.765C284.13 307.177 284.318 309.417 281.863 309.564C280.227 309.662 277.342 309.079 273.209 307.817L259.55 302.347L261.715 297.401Z" fill="#7B6FC0"/>
<path fill-rule="evenodd" clip-rule="evenodd" d="M261.715 297.401C270.41 298.764 275.592 300.376 277.261 302.239C278.19 303.275 282.888 304.354 283.509 305.765C284.13 307.177 288.51 308.665 286.056 308.812C285.673 308.835 281.367 308.167 279.616 306.865C276.291 304.392 270.571 303.223 269.432 302.209C266.625 299.711 264.053 298.109 261.715 297.401Z" fill="#C3BCE8"/>
</g>
<mask id="mask8" mask-type="alpha" maskUnits="userSpaceOnUse" x="261" y="288" width="30" height="20">
<path d="M265.319 288.497C275.374 291.737 281.269 294.199 283.005 295.882C283.24 296.111 283.415 296.349 283.529 296.595L290.203 303.762C289.323 306.92 287.851 307.903 285.786 306.713C283.722 305.523 281.084 304.032 277.873 302.239L277.874 302.236L261.743 296.743L265.319 288.497Z" fill="white"/>
</mask>
<g mask="url(#mask8)">
<path d="M265.319 288.497C275.374 291.737 281.269 294.199 283.005 295.882C283.24 296.111 283.415 296.349 283.529 296.595L290.203 303.762C289.323 306.92 287.851 307.903 285.786 306.713C283.722 305.523 281.084 304.032 277.873 302.239L277.874 302.236L261.743 296.743L265.319 288.497Z" fill="#7B6FC0"/>
<path fill-rule="evenodd" clip-rule="evenodd" d="M267.4 289.023C276.483 291.94 281.892 294.24 283.627 295.923C284.794 297.056 292.623 304.035 290.659 304.326C290.329 304.375 291.797 308.012 289.317 306.211C288.288 305.462 286.197 302.802 286.056 302.683C283.923 300.893 280.606 298.132 279.102 296.967C278.1 296.19 276.716 295.304 274.951 294.309L267.4 289.023Z" fill="#C3BCE8"/>
</g>
<mask id="mask9" mask-type="alpha" maskUnits="userSpaceOnUse" x="260" y="277" width="36" height="24">
<path d="M260.916 277.063C265.759 277.775 268.761 278.295 269.922 278.622C272.5 279.348 272.069 280.412 273.487 280.825C286.376 284.583 286.469 286.867 287.828 288.186C288.285 288.629 288.592 289.096 288.75 289.588L295.774 297.628C295.337 300.539 294.086 301.4 292.022 300.21C289.957 299.02 287.902 297.053 285.856 294.309L285.948 294.145L265.567 288.729L260.916 277.063Z" fill="white"/>
</mask>
<g mask="url(#mask9)">
<path d="M260.916 277.063C265.759 277.775 268.761 278.295 269.922 278.622C272.5 279.348 272.069 280.412 273.487 280.825C286.376 284.583 286.469 286.867 287.828 288.186C288.285 288.629 288.592 289.096 288.75 289.588L295.774 297.628C295.337 300.539 294.086 301.4 292.022 300.21C289.957 299.02 287.902 297.053 285.856 294.309L285.948 294.145L265.567 288.729L260.916 277.063Z" fill="#7B6FC0"/>
<path fill-rule="evenodd" clip-rule="evenodd" d="M264.362 279.198C268.933 279.515 272.507 280.058 275.084 280.825C278.948 281.976 287.256 284.66 288.615 285.978C289.906 287.231 289.661 288.68 289.015 289.894L295.774 297.628C296.621 301.902 296.42 303.186 295.169 301.478C293.923 299.777 291.17 296.78 286.909 292.487C286.392 292.748 286.066 290.625 284.827 289.882C280.252 287.138 275.843 285.382 272.013 283.823C269.776 282.912 267.116 281.841 266.374 281.282C265.033 280.272 264.362 279.577 264.362 279.198Z" fill="#C3BCE8"/>
</g>
<mask id="mask10" mask-type="alpha" maskUnits="userSpaceOnUse" x="150" y="66" width="103" height="229">
<path d="M252.805 119.008L230.339 68.8135C227.813 66.7905 226.373 66.0547 226.019 66.6061C179.391 139.339 150.077 183.368 150.077 196.695C150.077 210.173 176.385 242.9 228.999 294.876C231.537 289.945 233.858 286.794 235.962 285.425C240.799 282.276 244.915 281.6 244.844 277.498C244.817 275.961 228.01 247.906 194.423 193.333L252.805 119.008Z" fill="white"/>
</mask>
<g mask="url(#mask10)">
<path d="M252.805 119.008L230.339 68.8135C227.813 66.7905 226.373 66.0547 226.019 66.6061C179.391 139.339 150.077 183.368 150.077 196.695C150.077 210.173 176.385 242.9 228.999 294.876C231.537 289.945 233.858 286.794 235.962 285.425C240.799 282.276 244.915 281.6 244.844 277.498C244.817 275.961 228.01 247.906 194.423 193.333L252.805 119.008Z" fill="#20244B"/>
<path fill-rule="evenodd" clip-rule="evenodd" d="M252.805 118.734C250.502 117.74 243.405 119.731 231.515 124.708C221.985 128.697 217.461 132.961 211.739 151.976C204.708 175.34 183.713 174.677 179.867 185.017C176.021 195.356 180.454 196.637 194.229 210.464C199.855 216.111 192.764 229.316 199.855 239.307C207.15 249.586 213.787 247.192 228.776 263.442C235.325 270.541 238.295 279.597 241.487 281.107C242.607 281.636 244.454 280.073 247.031 276.418C244.555 272.792 241.848 268.467 238.91 263.442C227.872 244.565 212.979 221.084 194.229 193.001L252.805 118.734Z" fill="#534D96"/>
</g>
<mask id="mask11" mask-type="alpha" maskUnits="userSpaceOnUse" x="305" y="5" width="81" height="123">
<path d="M343.003 127.654C355.483 125.616 366.961 112.113 376.678 92.9761C381.238 83.9975 383.465 69.7075 385.125 57.9998C388.317 27.0827 367.842 5.7451 346.63 5.70969C325.418 5.67436 306.153 31.2101 305.908 60.0041C305.663 88.7981 323.083 130.907 343.003 127.654Z" fill="white"/>
</mask>
<g mask="url(#mask11)">
<path d="M323.327 123.466C335.791 125.602 351.04 116.571 366.458 101.64C373.692 94.6354 380.451 81.8491 385.831 71.3196C398.915 43.126 386.503 16.2851 366.458 9.34561C346.413 2.40618 319.884 20.2788 310.278 47.4242C300.672 74.5697 303.433 120.056 323.327 123.466Z" fill="#C3BCE8"/>
<path fill-rule="evenodd" clip-rule="evenodd" d="M323.077 122.613C334.252 124.528 331.077 123.962 341.501 113.125C342.797 111.777 349.326 110.49 350.953 109.344C355.746 105.967 350.932 89.6498 374.787 54.0156C387.871 25.8217 319.884 20.2779 310.278 47.4236C300.672 74.5694 303.184 119.203 323.077 122.613Z" fill="#7B6FC0"/>
</g>
<mask id="mask12" mask-type="alpha" maskUnits="userSpaceOnUse" x="297" y="1" width="100" height="96">
<path d="M366.282 45.2255C372.241 45.2336 374.133 52.5141 378.174 60.4181C381.354 66.6384 384.353 73.8964 386.965 80.3465C387.595 81.9021 376.086 49.0072 376.668 50.4429C380.543 60.0013 395.408 100.732 396.177 96.1869C398.15 84.5314 394.792 32.5785 393.492 24.966C391.492 13.2552 384.481 16.2398 377.445 9.97203C371.455 4.63545 358.275 1.00989 351.054 1.00004C334.655 0.977792 303.257 10.9572 297.773 30.6035C297.311 32.2592 297.01 40.5155 297.46 44.0903C298.578 52.9713 300.967 61.8634 302.002 64.8676C302.769 67.095 306.206 71.6487 306.491 73.1416C307.277 77.2599 306.912 81.9538 308.095 85.3884C308.775 87.3644 319.794 80.0307 331.558 73.2198C333.073 72.3431 331.012 76.1809 325.377 84.7334C350.636 58.392 364.271 45.2227 366.282 45.2255Z" fill="white"/>
</mask>
<g mask="url(#mask12)">
<path d="M366.386 51.6927C372.017 53.6402 371.437 61.1403 372.684 69.9292C373.665 76.8458 374.138 84.6848 374.508 91.6338C374.597 93.3097 374.425 58.4602 374.508 60.0072C375.059 70.3063 375.854 113.658 378.061 109.61C383.721 99.2323 397.46 49.0166 398.709 41.3956C400.631 29.6715 393.031 30.2113 388.419 21.9943C384.492 14.9981 373.211 7.27922 366.386 4.91898C350.888 -0.441243 317.951 -1.2276 306.37 15.563C305.394 16.978 302.422 24.6865 301.683 28.213C299.849 36.9742 299.213 46.1596 299.213 49.3369C299.213 51.6927 300.98 57.1173 300.764 58.6216C300.166 62.7715 298.293 67.0909 298.293 70.7234C298.293 72.8134 311.099 69.4666 324.44 66.8569C326.158 66.5209 322.96 69.4788 314.847 75.7306C347.305 59.0478 364.485 51.0352 366.386 51.6927Z" fill="#534D96"/>
<path fill-rule="evenodd" clip-rule="evenodd" d="M347.007 1.53261C331.508 -3.8276 317.951 -1.22758 306.37 15.5631C305.394 16.978 302.422 24.6865 301.683 28.213C299.849 36.9742 299.213 46.1596 299.213 49.337C299.213 51.6927 300.98 57.1173 300.764 58.6216C300.166 62.7715 298.293 67.091 298.293 70.7235C298.293 72.8134 311.099 69.4666 324.44 66.8569C326.158 66.5209 322.96 69.4788 314.847 75.7306C336.069 63.6471 346.326 54.647 345.619 48.7302C344.232 37.1154 346.308 29.5114 354.267 25.5455C374.899 15.2643 349.221 2.29845 347.007 1.53261Z" fill="#20244B"/>
<path fill-rule="evenodd" clip-rule="evenodd" d="M369.758 59.699C370.352 61.3135 370.848 112.415 373.3 115.045C379.393 121.58 385.414 61.077 377.568 56.8587C376.93 56.5161 376.378 54.1262 375.482 48.7302C374.535 43.0197 382.456 29.1417 381.829 28.7279C380.551 27.885 373.097 48.1366 366.94 43.7907C360.783 39.4448 364.55 45.5493 369.758 59.699Z" fill="#20244B"/>
</g>
<path fill-rule="evenodd" clip-rule="evenodd" d="M305.18 79.4477C308.15 79.709 311.33 72.3811 311.95 65.2573C312.569 58.1335 310.773 54.8582 307.804 54.5969C306.501 54.4823 303.387 53.4464 301.821 56.0065C300.571 58.0497 300.809 62.0508 300.925 66.0758C301.127 73.0646 302.21 79.1864 305.18 79.4477Z" fill="#7B6FC0"/>
</svg>
