<?xml version="1.0" encoding="UTF-8"?>
<svg width="34px" height="34px" viewBox="0 0 34 34" version="1.1" xmlns="http://www.w3.org/2000/svg" xmlns:xlink="http://www.w3.org/1999/xlink">
    <!-- Generator: Sketch 57.1 (83088) - https://sketch.com -->
    <title>user</title>
    <desc>Created with Sketch.</desc>
    <g id="prototype" stroke="none" stroke-width="1" fill="none" fill-rule="evenodd">
        <g id="/case/state" transform="translate(-671.000000, -2056.000000)" fill="#1D1E2B">
            <g id="research-&amp;-analysis" transform="translate(268.000000, 1456.000000)">
                <g id="personas" transform="translate(0.000000, 428.000000)">
                    <g id="content" transform="translate(5.000000, 55.000000)">
                        <g id="stats" transform="translate(398.000000, 6.000000)">
                            <g id="stat" transform="translate(0.000000, 104.000000)">
                                <g id="user" transform="translate(0.000000, 7.000000)">
                                    <circle id="Oval" cx="16.5277778" cy="8.02777778" r="8.02777778"></circle>
                                    <path d="M0.715535489,24.8531157 C7.75023989,22.7658534 13.1299617,21.7222222 16.8547009,21.7222222 C20.5815201,21.7222222 26.0559361,22.7670193 33.2779488,24.8566136 C33.7056379,24.9803723 34,25.371978 34,25.817213 L34,33 C34,33.5522847 33.5522847,34 33,34 L1,34 C0.44771525,34 1.04869017e-15,33.5522847 0,33 L0,25.811847 C-4.28869631e-05,25.3691018 0.291079996,24.9790556 0.715535489,24.8531157 Z" id="Rectangle"></path>
                                </g>
                            </g>
                        </g>
                    </g>
                </g>
            </g>
        </g>
    </g>
</svg>